:SAMPLES-PER-SECOND 30
:FULLY-SPECIFIED
:DEGREES
9
root  -24.46622173 38.40266551 19.38857732 5.212940216 3.130460501 0.8486138582
lowerback  12.77449989 1.136010051 2.295459986
upperback  2.52621007 2.005259991 3.745409966
thorax  -4.563230038 0.9786869884 2.301049948
lowerneck  -14.56639957 7.348259926 -1.709220052
upperneck  18.70429993 11.7823 -5.666429996
head  8.496310234 4.879970074 -0.2393220514
lclavicle  0 -5.34481991e-014 2.981770104e-014
lhumerus  -33.68420029 3.216310024 86.53679657
lradius  0.003583191894 6.643666666e-007 35.12530136
lwrist  -1.645157397e-007 -3.533851896e-007 -1.656430006
lhand  -5.505032044e-031 -15.8135004 33.60620117
lfingers  90 7.125020027 -90
lthumb  93.41605384 18.01962653 79.07819387
rclavicle  0 -5.34481991e-014 2.981770104e-014
rhumerus  -37.2052002 -20.6053009 -69.77610016
rradius  -1.296506525e-006 2.359789448e-007 37.45470047
rwrist  -2.281664457e-008 -8.593936229e-009 13.5649004
rhand  -1.345748685e-031 10.2737999 9.996669769
rfingers  -90 -7.125020027 -90
rthumb  -72.52445805 -22.91766803 -51.04506765
rfemur  -21.52620125 -4.115591049 25.23180008
rtibia  9.670418422e-007 1.119611625e-006 44.85570526
rfoot  2.556521167e-006 -21.86230087 -7.32433033
rtoes  2.336001174 19.8686595 -96.84438506
lfemur  -35.49790192 -0.5178750157 -21.23239899
ltibia  -3.641206786e-005 2.004581745e-007 44.32460785
lfoot  -5.693161143e-007 -12.40260315 -0.4745125473
ltoes  -5.298979543 -19.31302686 -105.6655569
10
root  -24.44177763 38.42866552 19.63304384 5.341579914 2.973769188 0.8303560615
lowerback  12.37390041 1.302239895 2.256659985
upperback  2.58788991 2.195790052 3.698309898
thorax  -4.282320023 1.074499965 2.249540091
lowerneck  -14.39890003 7.233280182 -1.87184
upperneck  18.25200081 11.64810085 -5.835499763
head  8.313440323 4.814109802 -0.3000369072
lclavicle  0 -5.34481991e-014 2.981770104e-014
lhumerus  -33.95529938 3.842999935 86.30390167
lradius  0.003583191894 6.643666666e-007 34.86339951
lwrist  -1.645157397e-007 -3.533851896e-007 -2.065229893
lhand  -5.505032044e-031 -15.8135004 33.60620117
lfingers  90 7.125020027 -90
lthumb  93.41605384 18.01962653 79.07819387
rclavicle  0 -5.34481991e-014 2.981770104e-014
rhumerus  -36.91550064 -20.38589859 -69.82569885
rradius  -1.296506525e-006 2.359789448e-007 37.59749985
rwrist  -2.281664457e-008 -8.593936229e-009 13.53229904
rhand  -1.345748685e-031 10.2737999 9.996669769
rfingers  -90 -7.125020027 -90
rthumb  -72.52445805 -22.91766803 -51.04506765
rfemur  -20.92810631 -4.085829258 25.1726017
rtibia  9.670418422e-007 1.119611625e-006 44.24090576
rfoot  2.556521167e-006 -21.89040184 -7.215310574
rtoes  2.336001174 19.8686595 -96.84438506
lfemur  -35.54610825 -0.5338474512 -21.37069893
ltibia  -3.641206786e-005 2.004581745e-007 41.92491531
lfoot  -5.693161143e-007 -11.16400433 -0.2215852886
ltoes  -5.298979543 -19.31302686 -105.6655569
11
root  -24.42111068 38.45955556 19.86766725 5.409249783 2.56523037 0.6441509724
lowerback  12.08209991 1.538409948 2.333460331
upperback  2.696540117 2.496289968 3.654459953
thorax  -4.009870052 1.223270059 2.120429993
lowerneck  -14.42739964 7.144390106 -1.97665
upperneck  17.98049927 11.53200054 -5.870200157
head  8.221269608 4.760529995 -0.3125689924
lclavicle  0 -5.34481991e-014 2.981770104e-014
lhumerus  -34.14350128 4.459139824 85.9957962
lradius  0.003583191894 6.643666666e-007 34.43610001
lwrist  -1.645157397e-007 -3.533851896e-007 -2.44671011
lhand  -5.505032044e-031 -15.8135004 33.60620117
lfingers  90 7.125020027 -90
lthumb  93.41605384 18.01962653 79.07819387
rclavicle  0 -5.34481991e-014 2.981770104e-014
rhumerus  -36.7098999 -20.22739983 -69.91729736
rradius  -1.296506525e-006 2.359789448e-007 38.03549957
rwrist  -2.281664457e-008 -8.593936229e-009 13.34519958
rhand  -1.345748685e-031 10.2737999 9.996669769
rfingers  -90 -7.125020027 -90
rthumb  -72.52445805 -22.91766803 -51.04506765
rfemur  -20.33810616 -3.689849377 25.29990005
rtibia  9.670418422e-007 1.119611625e-006 43.62490845
rfoot  2.556521167e-006 -21.78500175 -7.290291786
rtoes  2.336001174 19.8686595 -96.84438506
lfemur  -35.56570816 -0.3708323836 -21.27799606
ltibia  -3.641206786e-005 2.004581745e-007 39.43791199
lfoot  -5.693161143e-007 -9.731452942 -0.06683837622
ltoes  -5.298979543 -19.31302686 -105.6655569
12
root  -24.41177819 38.50822148 20.11633295 5.347030163 2.446829081 0.6554667354
lowerback  12.02840042 1.6588099 2.2317698
upperback  2.754729986 2.632380009 3.543489933
thorax  -3.921610117 1.291610003 2.04253006
lowerneck  -14.5472002 7.212639809 -1.866709948
upperneck  17.9864006 11.61260033 -5.89399004
head  8.254110336 4.799849987 -0.3228780925
lclavicle  0 -5.34481991e-014 2.981770104e-014
lhumerus  -34.27799988 5.06276989 85.61969757
lradius  0.003583191894 6.643666666e-007 33.79660034
lwrist  -1.645157397e-007 -3.533851896e-007 -2.544620037
lhand  -5.505032044e-031 -15.8135004 33.60620117
lfingers  90 7.125020027 -90
lthumb  93.41605384 18.01962653 79.07819387
rclavicle  0 -5.34481991e-014 2.981770104e-014
rhumerus  -36.57020187 -20.21080017 -70.00409698
rradius  -1.296506525e-006 2.359789448e-007 38.47029877
rwrist  -2.281664457e-008 -8.593936229e-009 13.51599979
rhand  -1.345748685e-031 10.2737999 9.996669769
rfingers  -90 -7.125020027 -90
rthumb  -72.52445805 -22.91766803 -51.04506765
rfemur  -19.51820946 -3.555950642 25.26309967
rtibia  9.670418422e-007 1.119611625e-006 43.01751709
rfoot  2.556521167e-006 -21.7515049 -7.389132023
rtoes  2.336001174 19.8686595 -96.84438506
lfemur  -35.29851532 -0.418872565 -21.34439659
ltibia  -3.641206786e-005 2.004581745e-007 36.84812546
lfoot  -5.693161143e-007 -8.419491768 -0.1768179387
ltoes  -5.298979543 -19.31302686 -105.6655569
